<svg width='100' height='70' version="1.1" xmlns="http://www.w3.org/2000/svg" xmlns:xlink="http://www.w3.org/1999/xlink" x="0px" y="0px" viewBox="0 0 1000 1000">
    <g>
        <path fill="#BEC3C6" d="M181.1,531.5c-38.7,0-70.1,31.4-70.1,70.1c0,3,0.2,5.9,0.6,8.8c4.3,34.5,33.8,61.3,69.5,61.3c36.7,0,66.8-28.2,69.8-64.1c0.2-2,0.3-4,0.3-6C251.2,562.9,219.9,531.5,181.1,531.5z M146,575.2l14.3,14.3c-1.1,1.9-2,4-2.5,6.2h-20.2C138.7,588,141.6,581.1,146,575.2z M137.6,607.8h20.3c0.6,2.2,1.4,4.2,2.5,6.1l-14.3,14.3C141.6,622.4,138.6,615.4,137.6,607.8z M175.1,645.2c-7.6-1.1-14.5-4-20.3-8.5l14.2-14.2c1.9,1.1,3.9,1.9,6.1,2.5L175.1,645.2L175.1,645.2z M175.1,578.3c-2.2,0.6-4.3,1.4-6.2,2.6l-14.3-14.3c5.9-4.5,12.8-7.4,20.5-8.5V578.3z M187.2,558.1c7.7,1,14.6,4,20.5,8.5l-14.3,14.3c-1.9-1.1-4-2-6.2-2.6V558.1z M187.2,645.2v-20.2c2.2-0.6,4.2-1.4,6.1-2.5l14.3,14.3C201.7,641.1,194.8,644.1,187.2,645.2z M216.2,628.3l-14.4-14.4c1.1-1.9,2-3.9,2.6-6.1h20.1C223.5,615.4,220.7,622.4,216.2,628.3z M204.5,595.7c-0.6-2.2-1.4-4.3-2.5-6.2l14.3-14.3c4.4,5.9,7.4,12.8,8.4,20.5H204.5z" />
        <path fill="#BEC3C6" d="M786.7,527.1c-38.7,0-70.1,31.4-70.1,70.1c0,3,0.2,5.9,0.6,8.8c4.3,34.5,33.8,61.3,69.5,61.3c36.7,0,66.8-28.2,69.8-64.1c0.2-2,0.3-4,0.3-6C856.9,558.4,825.5,527.1,786.7,527.1z M751.6,570.7l14.3,14.3c-1.1,1.9-2,4-2.5,6.2h-20.2C744.3,583.6,747.2,576.6,751.6,570.7z M743.2,603.3h20.3c0.6,2.2,1.4,4.2,2.5,6.1l-14.3,14.3C747.3,617.9,744.2,610.9,743.2,603.3z M780.7,640.7c-7.6-1.1-14.5-4-20.3-8.5l14.2-14.2c1.9,1.1,3.9,1.9,6.1,2.5L780.7,640.7L780.7,640.7z M780.7,573.8c-2.2,0.6-4.3,1.4-6.2,2.6l-14.3-14.3c5.9-4.4,12.8-7.4,20.5-8.5L780.7,573.8L780.7,573.8z M792.8,553.7c7.6,1,14.6,4,20.5,8.5L799,576.4c-1.9-1.1-4-2-6.2-2.6V553.7z M792.8,640.7v-20.2c2.2-0.6,4.2-1.4,6.1-2.5l14.3,14.3C807.3,636.7,800.4,639.6,792.8,640.7z M821.9,623.8l-14.4-14.4c1.1-1.9,2-3.9,2.6-6.1h20.1C829.1,610.9,826.3,618,821.9,623.8z M810.1,591.2c-0.6-2.2-1.4-4.2-2.6-6.2l14.3-14.3c4.4,5.9,7.3,12.8,8.4,20.5H810.1z" />
        <path fill="#BEC3C6" d="M977.5,536.9l-4.7-2.1v-53c0-13.5-4-26.6-11.6-37.7L920.2,384c-14.3-21.1-37-35.1-62.3-38.6C774,334,577.2,313,446.8,346.1c-96.4,24.4-212.3,98.1-212.3,98.1S85.8,468.4,52.9,486.3c-25.2,13.8-40,31.4-42.6,56.6c-1.2,12.1,1,28.2,3.6,41.6c3,15.6,15.3,27.8,30.9,30.8l54.7,10.5c-1.3-4.4-2.3-8.9-2.9-13.5c-0.5-3.8-0.7-7.3-0.7-10.7c0-47,38.2-85.2,85.2-85.2c47,0,85.2,38.2,85.2,85.2c0,2.4-0.2,4.8-0.3,7.2c-0.5,6.1-1.8,12.1-3.5,17.8h444.5c-2.2-6-3.8-12.2-4.6-18.8c-0.5-3.8-0.7-7.3-0.7-10.7c0-47,38.2-85.2,85.2-85.2c47,0,85.2,38.2,85.2,85.2c0,2.4-0.2,4.8-0.3,7.2c-0.6,7.8-2.4,15.2-5,22.3h0.6L970.2,595c9.3-2.8,16.1-10.9,17.5-20.5l2.1-15.4C991.1,549.8,986.1,540.7,977.5,536.9z M683.2,350.5v85l-122.9,6.1v-92.5c0.7,0,1.3-0.1,2-0.1C604.4,348.6,645.6,349.3,683.2,350.5z M337.4,418.6v-9.7c0,0,76.8-47.5,186.9-57.8L513.5,444l-176.2,8.8c0,0,8.4-3.9,8.4-22.6C345.7,430.2,345.1,421.8,337.4,418.6z M706.6,434.3v-44.4l22.9,43.2L706.6,434.3z M880.1,420.5c-7.2,3.7-15.1,5.9-23.1,6.3l-101,5l-42.6-80.2c77.9,3.3,135.7,8.8,147.1,12.1c18,5.2,34.4,29.8,33.7,42C893.8,411.8,886.9,416.9,880.1,420.5z" />
    </g>
</svg>